<svg width="459" height="141" viewBox="0 0 459 141" fill="none" xmlns="http://www.w3.org/2000/svg"> <rect width="459" height="141" fill="#4D4646"/> <path d="M150.82 91.6C148.42 91.6 146.04 91.18 143.68 90.34C141.32 89.5 139.62 88.56 138.58 87.52L141.76 81.82C142.6 82.58 143.9 83.38 145.66 84.22C147.46 85.02 149.18 85.42 150.82 85.42C152.94 85.42 154.66 84.92 155.98 83.92C157.34 82.92 158.02 81.54 158.02 79.78C158.02 78.42 157.66 77.24 156.94 76.24C156.22 75.24 155.34 74.42 154.3 73.78C153.26 73.1 151.78 72.28 149.86 71.32C147.58 70.2 146.02 69.36 145.18 68.8C141.3 66.2 139.36 62.6 139.36 58C139.36 54.2 140.62 51.3 143.14 49.3C145.66 47.26 148.84 46.24 152.68 46.24C156.8 46.24 160.3 47.42 163.18 49.78L160 55.24C159.24 54.44 158.16 53.76 156.76 53.2C155.4 52.6 153.94 52.3 152.38 52.3C150.38 52.3 148.8 52.76 147.64 53.68C146.52 54.56 145.96 55.88 145.96 57.64C145.96 58.88 146.32 60 147.04 61C147.76 61.96 148.66 62.8 149.74 63.52C150.86 64.24 152.36 65.12 154.24 66.16C156.04 67.16 157.42 67.96 158.38 68.56C159.34 69.12 160.24 69.8 161.08 70.6C162.24 71.64 163.18 72.88 163.9 74.32C164.62 75.76 164.98 77.34 164.98 79.06C164.98 81.74 164.36 84.02 163.12 85.9C161.92 87.78 160.24 89.2 158.08 90.16C155.96 91.12 153.54 91.6 150.82 91.6ZM171.903 63.46H178.143V68.56C180.343 64.68 183.783 62.74 188.463 62.74C192.343 62.74 195.483 63.98 197.883 66.46C200.283 68.9 201.483 72.44 201.483 77.08C201.483 79.96 200.883 82.5 199.683 84.7C198.523 86.9 196.923 88.6 194.883 89.8C192.883 91 190.643 91.6 188.163 91.6C185.843 91.6 183.823 91.2 182.103 90.4C180.423 89.56 179.103 88.38 178.143 86.86L178.203 105.58H171.903V63.46ZM186.663 86.14C189.263 86.14 191.263 85.32 192.663 83.68C194.063 82 194.763 79.86 194.763 77.26C194.763 74.54 194.063 72.38 192.663 70.78C191.303 69.14 189.303 68.32 186.663 68.32C185.223 68.32 183.863 68.68 182.583 69.4C181.343 70.08 180.343 71.08 179.583 72.4C178.863 73.68 178.503 75.18 178.503 76.9V77.32C178.503 79.04 178.863 80.58 179.583 81.94C180.343 83.26 181.343 84.3 182.583 85.06C183.823 85.78 185.183 86.14 186.663 86.14ZM220.585 91.6C218.105 91.6 215.805 91.02 213.685 89.86C211.605 88.66 209.925 86.98 208.645 84.82C207.405 82.62 206.785 80.06 206.785 77.14C206.785 74.26 207.325 71.74 208.405 69.58C209.525 67.42 211.105 65.74 213.145 64.54C215.185 63.34 217.585 62.74 220.345 62.74C221.945 62.74 223.445 63.02 224.845 63.58C226.245 64.14 227.425 64.84 228.385 65.68C229.345 66.48 229.985 67.28 230.305 68.08L230.425 63.46H236.605V91H230.485L230.365 86.14C229.685 87.58 228.445 88.86 226.645 89.98C224.845 91.06 222.825 91.6 220.585 91.6ZM221.665 86.2C223.945 86.2 225.865 85.42 227.425 83.86C228.985 82.26 229.765 80.18 229.765 77.62V77.2C229.765 75.48 229.405 73.94 228.685 72.58C227.965 71.22 226.985 70.16 225.745 69.4C224.505 68.64 223.145 68.26 221.665 68.26C219.105 68.26 217.125 69.1 215.725 70.78C214.325 72.42 213.625 74.56 213.625 77.2C213.625 79.88 214.305 82.06 215.665 83.74C217.065 85.38 219.065 86.2 221.665 86.2ZM245.139 63.46H251.619V68.86C252.259 67.02 253.299 65.54 254.739 64.42C256.179 63.3 257.819 62.74 259.659 62.74C260.939 62.74 261.819 62.86 262.299 63.1L261.399 69.64C261.039 69.4 260.259 69.28 259.059 69.28C257.179 69.28 255.459 69.88 253.899 71.08C252.379 72.28 251.619 74.2 251.619 76.84V91H245.139V63.46ZM281.948 46.9H301.268V52.78H288.608V64.96H298.808V70.96H288.608V85.06H303.248V91H281.948V46.9ZM309.596 63.46H315.956L316.016 68.5C316.776 66.82 317.976 65.44 319.616 64.36C321.256 63.28 323.176 62.74 325.376 62.74C328.216 62.74 330.396 63.34 331.916 64.54C333.436 65.7 334.456 67.34 334.976 69.46C335.496 71.58 335.756 74.34 335.756 77.74V91H329.276V77.92C329.276 74.44 328.936 71.94 328.256 70.42C327.576 68.86 326.176 68.08 324.056 68.08C322.856 68.08 321.636 68.46 320.396 69.22C319.156 69.94 318.116 71 317.276 72.4C316.476 73.8 316.076 75.44 316.076 77.32V91H309.596V63.46ZM357.488 105.4C355.448 105.4 353.428 105.12 351.428 104.56C349.468 104 348.068 103.48 347.228 103L348.668 97C351.308 98.72 354.188 99.58 357.308 99.58C359.708 99.58 361.728 99 363.368 97.84C365.008 96.68 365.848 94.42 365.888 91.06V86.14C365.048 87.7 363.688 89 361.808 90.04C359.928 91.08 357.848 91.6 355.568 91.6C353.168 91.6 350.968 91.02 348.968 89.86C346.968 88.66 345.388 86.96 344.228 84.76C343.068 82.56 342.488 80 342.488 77.08C342.488 74.28 343.028 71.8 344.108 69.64C345.228 67.44 346.808 65.74 348.848 64.54C350.888 63.34 353.268 62.74 355.988 62.74C357.588 62.74 359.088 63.02 360.488 63.58C361.888 64.14 363.068 64.84 364.028 65.68C365.028 66.48 365.688 67.28 366.008 68.08L366.128 63.46H372.248V90.82C372.248 95.5 371.048 99.1 368.648 101.62C366.248 104.14 362.528 105.4 357.488 105.4ZM357.368 86.14C359.648 86.14 361.568 85.36 363.128 83.8C364.688 82.2 365.468 80.12 365.468 77.56V77.14C365.468 75.42 365.108 73.88 364.388 72.52C363.668 71.16 362.688 70.1 361.448 69.34C360.208 68.58 358.848 68.2 357.368 68.2C354.808 68.2 352.828 69.04 351.428 70.72C350.028 72.36 349.328 74.5 349.328 77.14C349.328 79.82 350.008 82 351.368 83.68C352.768 85.32 354.768 86.14 357.368 86.14ZM381.033 63.46H387.753V91H381.033V63.46ZM384.333 58.3C383.093 58.3 382.053 57.88 381.213 57.04C380.373 56.2 379.953 55.16 379.953 53.92C379.953 52.8 380.373 51.84 381.213 51.04C382.053 50.24 383.093 49.84 384.333 49.84C385.533 49.84 386.553 50.24 387.393 51.04C388.233 51.84 388.653 52.8 388.653 53.92C388.653 55.16 388.233 56.2 387.393 57.04C386.593 57.88 385.573 58.3 384.333 58.3ZM396.725 63.46H403.085L403.145 68.5C403.905 66.82 405.105 65.44 406.745 64.36C408.385 63.28 410.305 62.74 412.505 62.74C415.345 62.74 417.525 63.34 419.045 64.54C420.565 65.7 421.585 67.34 422.105 69.46C422.625 71.58 422.885 74.34 422.885 77.74V91H416.405V77.92C416.405 74.44 416.065 71.94 415.385 70.42C414.705 68.86 413.305 68.08 411.185 68.08C409.985 68.08 408.765 68.46 407.525 69.22C406.285 69.94 405.245 71 404.405 72.4C403.605 73.8 403.205 75.44 403.205 77.32V91H396.725V63.46ZM444.257 91.6C440.977 91.6 438.237 90.96 436.037 89.68C433.837 88.36 432.217 86.62 431.177 84.46C430.137 82.26 429.617 79.86 429.617 77.26C429.617 74.34 430.217 71.78 431.417 69.58C432.657 67.38 434.357 65.7 436.517 64.54C438.677 63.34 441.117 62.74 443.837 62.74C448.077 62.74 451.217 63.92 453.257 66.28C455.337 68.6 456.377 71.88 456.377 76.12C456.377 77.2 456.317 78.32 456.197 79.48H436.397C436.837 81.92 437.697 83.68 438.977 84.76C440.297 85.84 442.117 86.38 444.437 86.38C446.357 86.38 447.937 86.22 449.177 85.9C450.417 85.58 451.557 85.14 452.597 84.58L454.577 89.2C453.577 89.84 452.217 90.4 450.497 90.88C448.777 91.36 446.697 91.6 444.257 91.6ZM450.077 74.98C450.117 72.5 449.577 70.76 448.457 69.76C447.337 68.72 445.737 68.2 443.657 68.2C439.457 68.2 437.037 70.46 436.397 74.98H450.077Z" fill="white"/> <g clip-path="url(#clip0_2_2)"> <g filter="url(#filter0_d_2_2)"> <mask id="path-2-inside-1_2_2" fill="white"> <path d="M113.022 137C112.896 137 112.768 136.981 112.643 136.942C112.219 136.812 102.173 133.685 94.4218 128.585C86.8154 123.582 68.73 111.474 68.548 111.353C68.1225 111.068 67.9164 110.559 68.0277 110.066C68.0479 109.976 70.0646 100.955 69.4134 97.1369C68.9722 94.5471 66.4725 91.5932 64.9926 90.1131L45.1182 100.619C44.5802 100.904 43.9113 100.77 43.5289 100.303C43.147 99.8361 43.1622 99.169 43.5643 98.7183L49.8007 91.7292L45.5525 79.1364C45.5518 79.1333 45.5506 79.1308 45.5499 79.1283L44.5094 76.0205H41.021C40.416 76.0205 39.8957 75.6007 39.78 75.0202C39.7744 74.9942 39.751 74.8712 39.7175 74.6579L24.6444 77.7713C24.3075 77.8393 23.9566 77.7726 23.6721 77.5834C23.3876 77.3942 23.1942 77.0999 23.1367 76.7685C23.0905 76.5015 22.0038 70.193 22 65.8981C21.9943 57.947 23.6728 49.9217 26.9892 42.0461C30.4421 33.8446 38.046 21.7655 48.1134 14.7133C57.0556 8.45063 71.4661 1.64696 89.3391 4.79439C108.035 8.08711 112.733 18.2144 112.924 18.6441C113.127 19.1022 113.029 19.6357 112.673 19.9961C112.673 19.9968 108.762 23.9578 105.828 26.9643C103.794 29.0471 100.995 32.6186 99.5462 34.5092C99.9161 34.6742 100.142 34.7849 100.209 34.8189C100.804 35.115 101.061 35.8124 100.795 36.4115L94.5387 50.5295C95.169 51.0024 96.044 51.701 96.7735 52.446C97.424 53.1094 98.0878 53.9304 98.5866 54.5826C101.849 51.7764 103.42 49.5205 103.444 49.4865C103.739 49.0562 104.281 48.8534 104.795 48.974C105.31 49.0976 105.693 49.5224 105.752 50.0386C105.797 50.4454 110.372 90.829 111.061 95.9529C111.759 101.141 112.343 105.21 112.343 105.212C112.414 105.704 112.177 106.189 111.742 106.444C111.308 106.699 110.759 106.677 110.348 106.384L106.871 103.911C106.594 103.714 106.411 103.416 106.362 103.086L104.009 86.9199L89.8935 82.0217L88.7783 86.8433L103.246 91.9418C103.693 92.0995 104.013 92.4896 104.072 92.9508C104.093 93.1134 106.185 109.304 107.839 118.737C109.45 127.93 114.043 135.026 114.088 135.096C114.375 135.535 114.351 136.102 114.028 136.515C113.783 136.826 113.409 137 113.022 137ZM70.674 109.779C74.0833 112.059 89.0881 122.096 95.8334 126.534C100.718 129.747 106.715 132.196 110.289 133.509C108.708 130.468 106.423 125.301 105.346 119.155C103.887 110.838 102.095 97.3291 101.661 94.0117L86.8704 88.7987C86.2698 88.5867 85.9247 87.9709 86.0663 87.3626L87.7435 80.1163C87.8231 79.7713 88.0494 79.477 88.3662 79.3058C88.6829 79.1364 89.0597 79.1061 89.3991 79.2235L105.577 84.8371C106.02 84.9911 106.34 85.3725 106.407 85.8281L108.792 102.217L109.434 102.673C109.202 101.019 108.892 98.7764 108.555 96.2732C107.973 91.9474 104.648 62.7254 103.573 53.259C101.682 55.3152 98.3957 58.3829 93.5386 61.2156C85.6876 65.7949 70.069 72.8718 62.3273 75.9296C56.8122 78.1076 51.0644 79.2711 48.4181 79.733L51.7769 89.689L62.4057 84.4785C63.031 84.1731 63.7896 84.4198 64.1031 85.03C64.4161 85.6408 64.1638 86.3833 63.5392 86.69L52.4894 92.1063C52.4685 92.3672 52.3629 92.6194 52.1815 92.8235L50.0688 95.1907L64.6082 87.5042C65.0811 87.2538 65.664 87.3243 66.0616 87.6785C66.269 87.8634 71.1475 92.2559 71.9093 96.7288C72.5206 100.326 71.1759 107.367 70.674 109.779ZM46.6645 74.5108L47.6178 77.3571C49.9626 76.9571 55.8728 75.8115 61.3797 73.6366C69.0455 70.6091 84.4953 63.6107 92.2427 59.092C93.8958 58.1276 95.3587 57.1303 96.6357 56.1597C96.1748 55.5532 95.5439 54.7631 94.9484 54.156C93.8452 53.0302 92.2768 51.9718 92.2616 51.9613C92.261 51.9607 92.261 51.9607 92.261 51.9607C92.0486 51.8191 79.4689 43.5515 67.9493 46.2488C56.6093 48.9023 49.448 57.7436 47.5938 64.8348C46.2283 70.0607 46.5886 73.8703 46.6645 74.5108ZM80.3444 6.47537C67.2703 6.47537 56.6504 11.7773 49.587 16.7238C39.2857 23.9399 32.0055 36.6279 29.3289 42.9876C26.1389 50.5629 24.5243 58.2704 24.53 65.8963C24.5325 68.8712 25.1078 73.0183 25.4258 75.082L39.4779 72.18C39.3875 70.4681 39.3963 68.0484 39.7668 65.0963C39.8976 64.0577 43.2115 39.5812 64.9591 32.6928C79.0744 28.2211 91.5511 31.5052 97.1326 33.5385C98.4374 31.8192 101.646 27.6684 104.001 25.2567C106.211 22.9921 108.975 20.1859 110.209 18.934C108.806 16.7096 103.367 9.77736 88.8921 7.22838C85.9417 6.70906 83.0887 6.47537 80.3444 6.47537ZM42.1248 73.5475H44.058C43.9809 71.7584 44.051 68.4057 45.1447 64.2233C47.1816 56.4355 55.0023 46.7366 67.3614 43.8439C77.8954 41.3808 88.7347 46.9592 92.407 49.1236L97.9816 36.545C94.1651 34.9685 80.7617 30.2866 65.7379 35.0446C49.5516 40.1716 43.3133 57.1409 42.2772 65.398C41.7948 69.2292 41.9693 72.1157 42.1248 73.5475Z"/> </mask> <path d="M113.022 137C112.896 137 112.768 136.981 112.643 136.942C112.219 136.812 102.173 133.685 94.4218 128.585C86.8154 123.582 68.73 111.474 68.548 111.353C68.1225 111.068 67.9164 110.559 68.0277 110.066C68.0479 109.976 70.0646 100.955 69.4134 97.1369C68.9722 94.5471 66.4725 91.5932 64.9926 90.1131L45.1182 100.619C44.5802 100.904 43.9113 100.77 43.5289 100.303C43.147 99.8361 43.1622 99.169 43.5643 98.7183L49.8007 91.7292L45.5525 79.1364C45.5518 79.1333 45.5506 79.1308 45.5499 79.1283L44.5094 76.0205H41.021C40.416 76.0205 39.8957 75.6007 39.78 75.0202C39.7744 74.9942 39.751 74.8712 39.7175 74.6579L24.6444 77.7713C24.3075 77.8393 23.9566 77.7726 23.6721 77.5834C23.3876 77.3942 23.1942 77.0999 23.1367 76.7685C23.0905 76.5015 22.0038 70.193 22 65.8981C21.9943 57.947 23.6728 49.9217 26.9892 42.0461C30.4421 33.8446 38.046 21.7655 48.1134 14.7133C57.0556 8.45063 71.4661 1.64696 89.3391 4.79439C108.035 8.08711 112.733 18.2144 112.924 18.6441C113.127 19.1022 113.029 19.6357 112.673 19.9961C112.673 19.9968 108.762 23.9578 105.828 26.9643C103.794 29.0471 100.995 32.6186 99.5462 34.5092C99.9161 34.6742 100.142 34.7849 100.209 34.8189C100.804 35.115 101.061 35.8124 100.795 36.4115L94.5387 50.5295C95.169 51.0024 96.044 51.701 96.7735 52.446C97.424 53.1094 98.0878 53.9304 98.5866 54.5826C101.849 51.7764 103.42 49.5205 103.444 49.4865C103.739 49.0562 104.281 48.8534 104.795 48.974C105.31 49.0976 105.693 49.5224 105.752 50.0386C105.797 50.4454 110.372 90.829 111.061 95.9529C111.759 101.141 112.343 105.21 112.343 105.212C112.414 105.704 112.177 106.189 111.742 106.444C111.308 106.699 110.759 106.677 110.348 106.384L106.871 103.911C106.594 103.714 106.411 103.416 106.362 103.086L104.009 86.9199L89.8935 82.0217L88.7783 86.8433L103.246 91.9418C103.693 92.0995 104.013 92.4896 104.072 92.9508C104.093 93.1134 106.185 109.304 107.839 118.737C109.45 127.93 114.043 135.026 114.088 135.096C114.375 135.535 114.351 136.102 114.028 136.515C113.783 136.826 113.409 137 113.022 137ZM70.674 109.779C74.0833 112.059 89.0881 122.096 95.8334 126.534C100.718 129.747 106.715 132.196 110.289 133.509C108.708 130.468 106.423 125.301 105.346 119.155C103.887 110.838 102.095 97.3291 101.661 94.0117L86.8704 88.7987C86.2698 88.5867 85.9247 87.9709 86.0663 87.3626L87.7435 80.1163C87.8231 79.7713 88.0494 79.477 88.3662 79.3058C88.6829 79.1364 89.0597 79.1061 89.3991 79.2235L105.577 84.8371C106.02 84.9911 106.34 85.3725 106.407 85.8281L108.792 102.217L109.434 102.673C109.202 101.019 108.892 98.7764 108.555 96.2732C107.973 91.9474 104.648 62.7254 103.573 53.259C101.682 55.3152 98.3957 58.3829 93.5386 61.2156C85.6876 65.7949 70.069 72.8718 62.3273 75.9296C56.8122 78.1076 51.0644 79.2711 48.4181 79.733L51.7769 89.689L62.4057 84.4785C63.031 84.1731 63.7896 84.4198 64.1031 85.03C64.4161 85.6408 64.1638 86.3833 63.5392 86.69L52.4894 92.1063C52.4685 92.3672 52.3629 92.6194 52.1815 92.8235L50.0688 95.1907L64.6082 87.5042C65.0811 87.2538 65.664 87.3243 66.0616 87.6785C66.269 87.8634 71.1475 92.2559 71.9093 96.7288C72.5206 100.326 71.1759 107.367 70.674 109.779ZM46.6645 74.5108L47.6178 77.3571C49.9626 76.9571 55.8728 75.8115 61.3797 73.6366C69.0455 70.6091 84.4953 63.6107 92.2427 59.092C93.8958 58.1276 95.3587 57.1303 96.6357 56.1597C96.1748 55.5532 95.5439 54.7631 94.9484 54.156C93.8452 53.0302 92.2768 51.9718 92.2616 51.9613C92.261 51.9607 92.261 51.9607 92.261 51.9607C92.0486 51.8191 79.4689 43.5515 67.9493 46.2488C56.6093 48.9023 49.448 57.7436 47.5938 64.8348C46.2283 70.0607 46.5886 73.8703 46.6645 74.5108ZM80.3444 6.47537C67.2703 6.47537 56.6504 11.7773 49.587 16.7238C39.2857 23.9399 32.0055 36.6279 29.3289 42.9876C26.1389 50.5629 24.5243 58.2704 24.53 65.8963C24.5325 68.8712 25.1078 73.0183 25.4258 75.082L39.4779 72.18C39.3875 70.4681 39.3963 68.0484 39.7668 65.0963C39.8976 64.0577 43.2115 39.5812 64.9591 32.6928C79.0744 28.2211 91.5511 31.5052 97.1326 33.5385C98.4374 31.8192 101.646 27.6684 104.001 25.2567C106.211 22.9921 108.975 20.1859 110.209 18.934C108.806 16.7096 103.367 9.77736 88.8921 7.22838C85.9417 6.70906 83.0887 6.47537 80.3444 6.47537ZM42.1248 73.5475H44.058C43.9809 71.7584 44.051 68.4057 45.1447 64.2233C47.1816 56.4355 55.0023 46.7366 67.3614 43.8439C77.8954 41.3808 88.7347 46.9592 92.407 49.1236L97.9816 36.545C94.1651 34.9685 80.7617 30.2866 65.7379 35.0446C49.5516 40.1716 43.3133 57.1409 42.2772 65.398C41.7948 69.2292 41.9693 72.1157 42.1248 73.5475Z" fill="white"/> <path d="M113.022 137C112.896 137 112.768 136.981 112.643 136.942C112.219 136.812 102.173 133.685 94.4218 128.585C86.8154 123.582 68.73 111.474 68.548 111.353C68.1225 111.068 67.9164 110.559 68.0277 110.066C68.0479 109.976 70.0646 100.955 69.4134 97.1369C68.9722 94.5471 66.4725 91.5932 64.9926 90.1131L45.1182 100.619C44.5802 100.904 43.9113 100.77 43.5289 100.303C43.147 99.8361 43.1622 99.169 43.5643 98.7183L49.8007 91.7292L45.5525 79.1364C45.5518 79.1333 45.5506 79.1308 45.5499 79.1283L44.5094 76.0205H41.021C40.416 76.0205 39.8957 75.6007 39.78 75.0202C39.7744 74.9942 39.751 74.8712 39.7175 74.6579L24.6444 77.7713C24.3075 77.8393 23.9566 77.7726 23.6721 77.5834C23.3876 77.3942 23.1942 77.0999 23.1367 76.7685C23.0905 76.5015 22.0038 70.193 22 65.8981C21.9943 57.947 23.6728 49.9217 26.9892 42.0461C30.4421 33.8446 38.046 21.7655 48.1134 14.7133C57.0556 8.45063 71.4661 1.64696 89.3391 4.79439C108.035 8.08711 112.733 18.2144 112.924 18.6441C113.127 19.1022 113.029 19.6357 112.673 19.9961C112.673 19.9968 108.762 23.9578 105.828 26.9643C103.794 29.0471 100.995 32.6186 99.5462 34.5092C99.9161 34.6742 100.142 34.7849 100.209 34.8189C100.804 35.115 101.061 35.8124 100.795 36.4115L94.5387 50.5295C95.169 51.0024 96.044 51.701 96.7735 52.446C97.424 53.1094 98.0878 53.9304 98.5866 54.5826C101.849 51.7764 103.42 49.5205 103.444 49.4865C103.739 49.0562 104.281 48.8534 104.795 48.974C105.31 49.0976 105.693 49.5224 105.752 50.0386C105.797 50.4454 110.372 90.829 111.061 95.9529C111.759 101.141 112.343 105.21 112.343 105.212C112.414 105.704 112.177 106.189 111.742 106.444C111.308 106.699 110.759 106.677 110.348 106.384L106.871 103.911C106.594 103.714 106.411 103.416 106.362 103.086L104.009 86.9199L89.8935 82.0217L88.7783 86.8433L103.246 91.9418C103.693 92.0995 104.013 92.4896 104.072 92.9508C104.093 93.1134 106.185 109.304 107.839 118.737C109.45 127.93 114.043 135.026 114.088 135.096C114.375 135.535 114.351 136.102 114.028 136.515C113.783 136.826 113.409 137 113.022 137ZM70.674 109.779C74.0833 112.059 89.0881 122.096 95.8334 126.534C100.718 129.747 106.715 132.196 110.289 133.509C108.708 130.468 106.423 125.301 105.346 119.155C103.887 110.838 102.095 97.3291 101.661 94.0117L86.8704 88.7987C86.2698 88.5867 85.9247 87.9709 86.0663 87.3626L87.7435 80.1163C87.8231 79.7713 88.0494 79.477 88.3662 79.3058C88.6829 79.1364 89.0597 79.1061 89.3991 79.2235L105.577 84.8371C106.02 84.9911 106.34 85.3725 106.407 85.8281L108.792 102.217L109.434 102.673C109.202 101.019 108.892 98.7764 108.555 96.2732C107.973 91.9474 104.648 62.7254 103.573 53.259C101.682 55.3152 98.3957 58.3829 93.5386 61.2156C85.6876 65.7949 70.069 72.8718 62.3273 75.9296C56.8122 78.1076 51.0644 79.2711 48.4181 79.733L51.7769 89.689L62.4057 84.4785C63.031 84.1731 63.7896 84.4198 64.1031 85.03C64.4161 85.6408 64.1638 86.3833 63.5392 86.69L52.4894 92.1063C52.4685 92.3672 52.3629 92.6194 52.1815 92.8235L50.0688 95.1907L64.6082 87.5042C65.0811 87.2538 65.664 87.3243 66.0616 87.6785C66.269 87.8634 71.1475 92.2559 71.9093 96.7288C72.5206 100.326 71.1759 107.367 70.674 109.779ZM46.6645 74.5108L47.6178 77.3571C49.9626 76.9571 55.8728 75.8115 61.3797 73.6366C69.0455 70.6091 84.4953 63.6107 92.2427 59.092C93.8958 58.1276 95.3587 57.1303 96.6357 56.1597C96.1748 55.5532 95.5439 54.7631 94.9484 54.156C93.8452 53.0302 92.2768 51.9718 92.2616 51.9613C92.261 51.9607 92.261 51.9607 92.261 51.9607C92.0486 51.8191 79.4689 43.5515 67.9493 46.2488C56.6093 48.9023 49.448 57.7436 47.5938 64.8348C46.2283 70.0607 46.5886 73.8703 46.6645 74.5108ZM80.3444 6.47537C67.2703 6.47537 56.6504 11.7773 49.587 16.7238C39.2857 23.9399 32.0055 36.6279 29.3289 42.9876C26.1389 50.5629 24.5243 58.2704 24.53 65.8963C24.5325 68.8712 25.1078 73.0183 25.4258 75.082L39.4779 72.18C39.3875 70.4681 39.3963 68.0484 39.7668 65.0963C39.8976 64.0577 43.2115 39.5812 64.9591 32.6928C79.0744 28.2211 91.5511 31.5052 97.1326 33.5385C98.4374 31.8192 101.646 27.6684 104.001 25.2567C106.211 22.9921 108.975 20.1859 110.209 18.934C108.806 16.7096 103.367 9.77736 88.8921 7.22838C85.9417 6.70906 83.0887 6.47537 80.3444 6.47537ZM42.1248 73.5475H44.058C43.9809 71.7584 44.051 68.4057 45.1447 64.2233C47.1816 56.4355 55.0023 46.7366 67.3614 43.8439C77.8954 41.3808 88.7347 46.9592 92.407 49.1236L97.9816 36.545C94.1651 34.9685 80.7617 30.2866 65.7379 35.0446C49.5516 40.1716 43.3133 57.1409 42.2772 65.398C41.7948 69.2292 41.9693 72.1157 42.1248 73.5475Z" stroke="white" stroke-width="2" mask="url(#path-2-inside-1_2_2)"/> </g> </g> <defs> <filter id="filter0_d_2_2" x="22" y="4" width="116.288" height="141" filterUnits="userSpaceOnUse" color-interpolation-filters="sRGB"> <feFlood flood-opacity="0" result="BackgroundImageFix"/> <feColorMatrix in="SourceAlpha" type="matrix" values="0 0 0 0 0 0 0 0 0 0 0 0 0 0 0 0 0 0 127 0" result="hardAlpha"/> <feOffset dx="20" dy="4"/> <feGaussianBlur stdDeviation="2"/> <feComposite in2="hardAlpha" operator="out"/> <feColorMatrix type="matrix" values="0 0 0 0 0 0 0 0 0 0 0 0 0 0 0 0 0 0 0.25 0"/> <feBlend mode="normal" in2="BackgroundImageFix" result="effect1_dropShadow_2_2"/> <feBlend mode="normal" in="SourceGraphic" in2="effect1_dropShadow_2_2" result="shape"/> </filter> <clipPath id="clip0_2_2"> <rect width="136" height="133" fill="white" transform="translate(0 4)"/> </clipPath> </defs> </svg>